<?xml version="1.0" encoding="UTF-8" standalone="no"?>
<svg
   xmlns:dc="http://purl.org/dc/elements/1.1/"
   xmlns:cc="http://creativecommons.org/ns#"
   xmlns:rdf="http://www.w3.org/1999/02/22-rdf-syntax-ns#"
   xmlns:svg="http://www.w3.org/2000/svg"
   xmlns="http://www.w3.org/2000/svg"
   xmlns:sodipodi="http://sodipodi.sourceforge.net/DTD/sodipodi-0.dtd"
   xmlns:inkscape="http://www.inkscape.org/namespaces/inkscape"
   enable-background="new 0 0 595.28 841.89"
   version="1.1"
   viewBox="0 0 332.30998 84.58"
   xml:space="preserve"
   id="svg90"
   sodipodi:docname="logo.svg"
   width="332.31"
   height="84.580002"
   inkscape:version="1.0.1 (3bc2e813f5, 2020-09-07)"><defs
   id="defs94" /><sodipodi:namedview
   pagecolor="#ffffff"
   bordercolor="#666666"
   borderopacity="1"
   objecttolerance="10"
   gridtolerance="10"
   guidetolerance="10"
   inkscape:pageopacity="0"
   inkscape:pageshadow="2"
   inkscape:window-width="1920"
   inkscape:window-height="1016"
   id="namedview92"
   showgrid="false"
   fit-margin-top="0"
   fit-margin-left="0"
   fit-margin-right="0"
   fit-margin-bottom="0"
   inkscape:zoom="1.0167599"
   inkscape:cx="64.410017"
   inkscape:cy="30.779951"
   inkscape:window-x="0"
   inkscape:window-y="27"
   inkscape:window-maximized="1"
   inkscape:current-layer="svg90" /><metadata
   id="metadata2"><rdf:RDF><cc:Work
       rdf:about=""><dc:format>image/svg+xml</dc:format><dc:type
         rdf:resource="http://purl.org/dc/dcmitype/StillImage" /><dc:title></dc:title></cc:Work></rdf:RDF></metadata>
<style
   type="text/css"
   id="style4">
	.st0{fill:#008D36;}
	.st1{fill:#3AAA35;}
	.st2{fill:none;stroke:#006633;stroke-width:3;stroke-miterlimit:10;}
</style>
<switch
   id="switch88"
   transform="translate(-233.23,-24.860001)">
	<g
   id="g86">
		<path
   class="st0"
   d="m 374.23,43.73 c 0,-0.3 0.1,-0.55 0.31,-0.74 0.21,-0.19 0.46,-0.28 0.76,-0.28 h 4.42 c 0.3,0 0.56,0.09 0.76,0.28 0.21,0.19 0.31,0.44 0.31,0.74 l 0.08,34.56 c 0,0.72 -0.36,1.08 -1.08,1.08 h -4.42 c -0.3,0 -0.56,-0.1 -0.76,-0.31 -0.21,-0.21 -0.31,-0.46 -0.31,-0.77 z"
   id="path6" />
		<path
   class="st0"
   d="m 385.1,43.73 c 0,-0.3 0.1,-0.55 0.31,-0.74 0.21,-0.19 0.46,-0.28 0.76,-0.28 h 4.42 c 0.3,0 0.56,0.09 0.76,0.28 0.21,0.19 0.31,0.44 0.31,0.74 l 0.08,34.56 c 0,0.72 -0.36,1.08 -1.08,1.08 h -4.42 c -0.3,0 -0.56,-0.1 -0.76,-0.31 -0.21,-0.21 -0.31,-0.46 -0.31,-0.77 z"
   id="path8" />
		<path
   class="st1"
   d="m 423,52.12 c 0,-0.3 0.09,-0.56 0.28,-0.76 0.19,-0.21 0.43,-0.31 0.74,-0.31 h 4.19 v -7.42 c 0,-0.3 0.1,-0.56 0.31,-0.77 0.21,-0.21 0.46,-0.31 0.76,-0.31 h 4.42 c 0.72,0 1.08,0.36 1.08,1.08 v 7.42 h 4.99 c 0.3,0 0.55,0.1 0.74,0.31 0.19,0.21 0.28,0.46 0.28,0.76 v 4.19 c 0,0.3 -0.09,0.55 -0.28,0.74 -0.19,0.19 -0.43,0.28 -0.74,0.28 h -4.99 V 78.3 c 0,0.72 -0.36,1.08 -1.08,1.08 h -4.42 c -0.3,0 -0.56,-0.1 -0.76,-0.31 -0.21,-0.21 -0.31,-0.46 -0.31,-0.77 V 57.33 h -4.19 c -0.3,0 -0.55,-0.09 -0.74,-0.28 C 423.09,56.86 423,56.62 423,56.31 Z"
   id="path10" />
		<path
   class="st1"
   d="m 461.37,57.38 c -0.11,0.3 -0.3,0.51 -0.57,0.62 -0.26,0.11 -0.55,0.09 -0.85,-0.06 -0.3,-0.15 -0.67,-0.28 -1.11,-0.4 -0.43,-0.11 -0.9,-0.17 -1.39,-0.17 -0.83,0 -1.62,0.17 -2.38,0.51 -0.76,0.34 -1.43,0.8 -2.01,1.39 -0.59,0.59 -1.05,1.27 -1.39,2.04 -0.34,0.77 -0.51,1.58 -0.51,2.41 l -0.11,14.56 c 0,0.3 -0.09,0.56 -0.28,0.77 -0.19,0.21 -0.44,0.31 -0.74,0.31 h -4.48 c -0.3,0 -0.56,-0.1 -0.77,-0.31 -0.21,-0.21 -0.31,-0.46 -0.31,-0.77 V 52.12 c 0,-0.3 0.1,-0.56 0.31,-0.76 0.21,-0.21 0.46,-0.31 0.77,-0.31 h 4.48 c 0.3,0 0.55,0.1 0.74,0.31 0.19,0.21 0.28,0.46 0.28,0.76 v 1.53 c 1.1,-0.79 2.27,-1.44 3.51,-1.95 1.25,-0.51 2.59,-0.76 4.02,-0.76 1.47,0 2.76,0.28 3.85,0.85 0.53,0.34 0.7,0.78 0.51,1.3 z"
   id="path12" />
		<path
   class="st1"
   d="m 526.7,54.62 c 0,-0.3 0.09,-0.56 0.28,-0.76 0.19,-0.21 0.43,-0.31 0.74,-0.31 h 4.48 c 0.3,0 0.56,0.1 0.76,0.31 0.21,0.21 0.31,0.46 0.31,0.76 v 23.67 c 0,0.3 -0.1,0.56 -0.31,0.77 -0.21,0.21 -0.46,0.31 -0.76,0.31 h -4.48 c -0.3,0 -0.55,-0.1 -0.74,-0.31 -0.19,-0.21 -0.28,-0.46 -0.28,-0.77 z"
   id="path14" />
		<path
   class="st0"
   d="m 532.89,42.8 -3.59,0.01 c -1.97,0.01 -3.57,1.62 -3.57,3.59 0,1.98 1.61,3.59 3.59,3.59 1.98,0 3.58,-1.6 3.59,-3.57 z"
   id="path16" />
		<path
   class="st0"
   d="m 356.26,51.73 c -7.78,0 -14.09,6.31 -14.09,14.09 0,7.78 6.31,14.09 14.09,14.09 2.88,0 5.56,-0.87 7.79,-2.36 v 1.03 c 0,0.73 0.6,1.33 1.33,1.33 h 3.64 c 0.73,0 1.33,-0.6 1.33,-1.33 V 65.82 c 0,-7.78 -6.31,-14.09 -14.09,-14.09 z m 0,21.86 c -4.29,0 -7.77,-3.48 -7.77,-7.77 0,-4.29 3.48,-7.77 7.77,-7.77 4.29,0 7.77,3.48 7.77,7.77 0,4.29 -3.47,7.77 -7.77,7.77 z"
   id="path18" />
		<path
   class="st1"
   d="m 551.45,51.73 c -7.78,0 -14.09,6.31 -14.09,14.09 0,7.78 6.31,14.09 14.09,14.09 2.88,0 5.56,-0.87 7.79,-2.36 v 1.03 c 0,0.73 0.6,1.33 1.33,1.33 h 3.64 c 0.73,0 1.33,-0.6 1.33,-1.33 V 65.82 c 0,-7.78 -6.31,-14.09 -14.09,-14.09 z m 0,21.86 c -4.29,0 -7.77,-3.48 -7.77,-7.77 0,-4.29 3.48,-7.77 7.77,-7.77 4.29,0 7.77,3.48 7.77,7.77 0,4.29 -3.48,7.77 -7.77,7.77 z"
   id="path20" />
		<path
   class="st1"
   d="m 508.3,51.73 c -7.78,0 -14.09,6.31 -14.09,14.09 v 23 c 0,0.73 0.6,1.33 1.33,1.33 h 3.64 c 0.73,0 1.33,-0.6 1.33,-1.33 V 77.55 c 2.23,1.49 4.91,2.36 7.79,2.36 7.78,0 14.09,-6.31 14.09,-14.09 0,-7.78 -6.31,-14.09 -14.09,-14.09 z m 0,21.86 c -4.29,0 -7.77,-3.48 -7.77,-7.77 0,-4.29 3.48,-7.77 7.77,-7.77 4.29,0 7.77,3.48 7.77,7.77 0,4.29 -3.47,7.77 -7.77,7.77 z"
   id="path22" />
		<path
   class="st1"
   d="m 477.19,51.19 c -7.78,0 -14.09,6.31 -14.09,14.09 0,7.78 6.31,14.09 14.09,14.09 7.78,0 14.09,-6.31 14.09,-14.09 0,-7.78 -6.31,-14.09 -14.09,-14.09 z m 0,21.62 c -4.16,0 -7.53,-3.37 -7.53,-7.53 0,-4.16 3.37,-7.53 7.53,-7.53 4.16,0 7.53,3.37 7.53,7.53 0,4.16 -3.37,7.53 -7.53,7.53 z"
   id="path24" />
		<path
   class="st0"
   d="m 408.77,51.19 c -7.78,0 -14.09,6.31 -14.09,14.09 0,7.78 6.31,14.09 14.09,14.09 7.78,0 14.09,-6.31 14.09,-14.09 0,-7.78 -6.31,-14.09 -14.09,-14.09 z m 0,21.62 c -4.16,0 -7.53,-3.37 -7.53,-7.53 0,-4.16 3.37,-7.53 7.53,-7.53 4.16,0 7.53,3.37 7.53,7.53 0,4.16 -3.37,7.53 -7.53,7.53 z"
   id="path26" />
			<line
   class="st2"
   x1="260.57999"
   x2="262.26001"
   y1="105.23"
   y2="80.150002"
   id="line28" />
				<line
   class="st2"
   x1="303.62"
   x2="282.10001"
   y1="105.23"
   y2="90.650002"
   id="line30" />
				<line
   class="st2"
   x1="260.57999"
   x2="282.10001"
   y1="105.23"
   y2="90.650002"
   id="line32" />
				<polygon
   class="st2"
   points="239.06,67.96 260.58,105.23 303.62,105.23 325.14,67.96 303.62,30.69 260.58,30.69 "
   id="polygon34" />
				<polygon
   class="st2"
   points="262.26,80.15 282.1,91.6 301.94,80.15 301.94,57.24 282.1,45.78 262.26,57.24 "
   id="polygon36" />
				<line
   class="st2"
   x1="260.57999"
   x2="262.26001"
   y1="30.690001"
   y2="57.240002"
   id="line38" />
				<line
   class="st2"
   x1="260.57999"
   x2="282.10001"
   y1="30.690001"
   y2="45.779999"
   id="line40" />
				<line
   class="st2"
   x1="239.06"
   x2="262.26001"
   y1="68.690002"
   y2="57.240002"
   id="line42" />
				<line
   class="st2"
   x1="282.10001"
   x2="303.62"
   y1="45.779999"
   y2="30.690001"
   id="line44" />
				<line
   class="st2"
   x1="301.70001"
   x2="303.62"
   y1="58.310001"
   y2="30.690001"
   id="line46" />
				<line
   class="st2"
   x1="302.03"
   x2="325.14001"
   y1="80.139999"
   y2="67.959999"
   id="line48" />
				<line
   class="st2"
   x1="303.85001"
   x2="302.17001"
   y1="103.61"
   y2="78.519997"
   id="line50" />
				<line
   class="st2"
   x1="239.06"
   x2="262.26001"
   y1="67.959999"
   y2="80.150002"
   id="line52" />
				<line
   class="st2"
   x1="325.14001"
   x2="301.70001"
   y1="67.959999"
   y2="57.66"
   id="line54" />
				<line
   class="st2"
   x1="281.70001"
   x2="282.10001"
   y1="46.02"
   y2="90.650002"
   id="line56" />
				<line
   class="st2"
   x1="262.26001"
   x2="302.28"
   y1="57.240002"
   y2="80.169998"
   id="line58" />
				<line
   class="st2"
   x1="262.79999"
   x2="301.70001"
   y1="80.139999"
   y2="57.66"
   id="line60" />
			<circle
   class="st0"
   cx="260.57999"
   cy="30.690001"
   r="5.8299999"
   id="circle62" />
			<circle
   class="st0"
   cx="281.75"
   cy="44.57"
   r="5.8299999"
   id="circle64" />
			<circle
   class="st0"
   cx="301.94"
   cy="57.240002"
   r="5.8299999"
   id="circle66" />
			<circle
   class="st0"
   cx="301.94"
   cy="80.150002"
   r="5.8299999"
   id="circle68" />
			<circle
   class="st0"
   cx="303.62"
   cy="30.690001"
   r="5.8299999"
   id="circle70" />
			<circle
   class="st0"
   cx="261.75"
   cy="102.7"
   r="5.8299999"
   id="circle72" />
			<circle
   class="st0"
   cx="303.85001"
   cy="103.61"
   r="5.8299999"
   id="circle74" />
			<circle
   class="st0"
   cx="262.26001"
   cy="57.240002"
   r="5.8299999"
   id="circle76" />
			<circle
   class="st0"
   cx="322.35999"
   cy="67.959999"
   r="5.8299999"
   id="circle78" />
			<circle
   class="st0"
   cx="262.26001"
   cy="79.150002"
   r="5.8299999"
   id="circle80" />
			<circle
   class="st0"
   cx="282.10001"
   cy="90.650002"
   r="5.8299999"
   id="circle82" />
			<circle
   class="st0"
   cx="239.06"
   cy="67.959999"
   r="5.8299999"
   id="circle84" />
	</g>
</switch>
</svg>
